<?xml version="1.0" encoding="UTF-8" standalone="no"?>
<!-- Created with Inkscape (http://www.inkscape.org/) -->

<svg
   width="264.58334mm"
   height="272.52084mm"
   viewBox="0 0 264.58334 272.52084"
   version="1.1"
   id="svg1"
   inkscape:version="1.4.2 (f4327f4, 2025-05-13)"
   sodipodi:docname="isotipo.svg"
   xmlns:inkscape="http://www.inkscape.org/namespaces/inkscape"
   xmlns:sodipodi="http://sodipodi.sourceforge.net/DTD/sodipodi-0.dtd"
   xmlns:xlink="http://www.w3.org/1999/xlink"
   xmlns="http://www.w3.org/2000/svg"
   xmlns:svg="http://www.w3.org/2000/svg">
  <sodipodi:namedview
     id="namedview1"
     pagecolor="#ffffff"
     bordercolor="#000000"
     borderopacity="0.25"
     inkscape:showpageshadow="2"
     inkscape:pageopacity="0.0"
     inkscape:pagecheckerboard="0"
     inkscape:deskcolor="#d1d1d1"
     inkscape:document-units="px"
     showguides="true"
     inkscape:zoom="0.97386896"
     inkscape:cx="337.82779"
     inkscape:cy="345.52903"
     inkscape:window-width="1920"
     inkscape:window-height="991"
     inkscape:window-x="-9"
     inkscape:window-y="-9"
     inkscape:window-maximized="1"
     inkscape:current-layer="g1">
    <sodipodi:guide
       position="251.35417,177.29852"
       orientation="-1,0"
       id="guide1"
       inkscape:locked="false"
       inkscape:label=""
       inkscape:color="rgb(0,134,229)" />
    <sodipodi:guide
       position="132.29167,111.00792"
       orientation="-1,0"
       id="guide3"
       inkscape:locked="false"
       inkscape:label=""
       inkscape:color="rgb(0,134,229)" />
    <sodipodi:guide
       position="13.229166,186.88406"
       orientation="-1,0"
       id="guide4"
       inkscape:locked="false"
       inkscape:label=""
       inkscape:color="rgb(0,134,229)" />
    <inkscape:page
       x="0"
       y="0"
       width="264.58334"
       height="272.52084"
       id="page4"
       margin="0"
       bleed="0" />
    <sodipodi:guide
       position="45.337647,137.58333"
       orientation="0,1"
       id="guide5"
       inkscape:locked="false"
       inkscape:label=""
       inkscape:color="rgb(0,134,229)" />
    <sodipodi:guide
       position="36.884865,256.64584"
       orientation="0,1"
       id="guide6"
       inkscape:locked="false"
       inkscape:label=""
       inkscape:color="rgb(0,134,229)" />
    <sodipodi:guide
       position="189.41915,13.229177"
       orientation="0,1"
       id="guide7"
       inkscape:locked="false"
       inkscape:label=""
       inkscape:color="rgb(0,134,229)" />
  </sodipodi:namedview>
  <defs
     id="defs1">
    <linearGradient
       inkscape:collect="always"
       xlink:href="#linearGradient2"
       id="linearGradient3-4"
       x1="110.42866"
       y1="14.284012"
       x2="110.42866"
       y2="83.064423"
       gradientUnits="userSpaceOnUse"
       gradientTransform="matrix(3.6929125,0,0,3.6929125,-332.66169,-145.94138)" />
    <linearGradient
       id="linearGradient2"
       inkscape:collect="always">
      <stop
         style="stop-color:#561ad9;stop-opacity:1;"
         offset="0"
         id="stop2" />
      <stop
         style="stop-color:#2b0c6c;stop-opacity:1;"
         offset="1"
         id="stop3" />
    </linearGradient>
  </defs>
  <g
     inkscape:label="Capa 1"
     inkscape:groupmode="layer"
     id="layer1"
     transform="translate(-127.69086,-14.127499)">
    <g
       id="g1"
       transform="matrix(0.9375,0,0,0.9375,189.36454,118.61812)">
      <path
         style="fill:url(#linearGradient3-4);fill-opacity:1;stroke:none;stroke-width:0;stroke-dasharray:none;stroke-opacity:1"
         d="m -29.44454,-49.737028 75.37805,-39.462599 c 0,0 26.2493,-15.696353 49.30614,-4.256636 23.05683,11.439717 88.23666,45.93625 88.23666,45.93625 0,0 17.29258,12.326533 18.09071,29.175737 0.7981,16.849186 0.53207,94.532916 0.53207,94.532916 0,0 0.35489,24.47569 -24.38699,38.84186 -24.74173,14.36617 -74.75729,42.12302 -74.75729,42.12302 0,0 -25.00778,16.13976 -49.30615,2.83778 -24.2983,-13.30202 -83.80266,-47.26648 -83.80266,-47.26648 0,0 -20.8398,-13.39066 -21.37187,-33.6984 -0.53206,-20.30775 -0.26589,-93.025356 -0.26589,-93.025356 0,0 -2.41037,-22.767904 22.34736,-35.738092 z"
         id="path6-5"
         sodipodi:nodetypes="ccscscscscsccc"
         inkscape:export-filename="path6.svg"
         inkscape:export-xdpi="96"
         inkscape:export-ydpi="96" />
      <path
         style="fill:#220a56;fill-opacity:1;stroke-width:0.983416"
         d="M -29.9179,-19.765685 55.23138,26.11138 c 0,0 15.35187,12.13869 14.99483,30.3467 -0.35718,18.20801 -0.35718,81.75759 -0.35718,81.75759 0,0 -3.3917,14.99481 -21.7782,4.81977 -18.38654,-10.17508 -74.26017,-41.23582 -74.26017,-41.23582 0,0 -13.56678,-10.53208 -14.28082,-25.16991 -0.71405,-14.63783 -0.71405,-88.00541 -0.71405,-88.00541 0,0 3.92725,-9.818066 11.24613,-8.389985 z"
         id="path7-5"
         sodipodi:nodetypes="ccccscscsc" />
      <path
         style="fill:#220a56;fill-opacity:1;stroke-width:0.983416"
         d="m 85.46978,49.64717 c 0,0 4.03921,-15.52575 14.26351,-21.33213 10.22428,-5.80641 82.42534,-45.94612 82.42534,-45.94612 0,0 4.30427,-1.202443 6.64721,0.203318 2.34297,1.405747 4.88672,3.726365 5.6454,5.377572 0.75864,1.65124 0.39306,7.13627 0.39306,7.13627 l 0.41023,82.20446 c 0,0 -3.10161,19.43881 -17.33779,26.80233 -14.23616,7.36354 -40.74491,21.95674 -40.74491,21.95674 l -28.02605,15.79813 -7.45725,3.48815 c 0,0 -6.61499,1.70452 -11.46076,-0.31667 -2.66972,-1.11344 -4.76044,-3.367 -4.82385,-7.679 -0.17841,-12.13868 0.0657,-87.69324 0.0657,-87.69324 z"
         id="path8-1"
         sodipodi:nodetypes="cscssccscccsccc" />
      <path
         style="font-weight:bold;font-size:86.625px;font-family:'Exo 2';-inkscape-font-specification:'Exo 2 Bold';text-align:center;text-anchor:middle;fill:#ffffff;stroke-width:1.3679;paint-order:markers fill stroke"
         d="m 56.358141,-65.21384 v 59.7712502 h -13.167 V -65.21384 Z m 18.018,0 v 10.395 h -49.203 v -10.395 z m 27.200189,-1.126125 c 2.94525,0 6.15038,0.17325 9.61538,0.51975 3.465,0.28875 6.84337,0.895125 10.13512,1.819125 l -0.86625,8.83575 c -2.541,-0.1155 -5.51512,-0.202125 -8.92237,-0.259875 -3.40725,-0.05775 -6.75675,-0.08662 -10.0485,-0.08662 -1.617003,0 -3.003004,0.05775 -4.158004,0.17325 -1.09725,0.1155 -1.992375,0.3465 -2.685375,0.693 -0.693,0.3465 -1.183875,0.924 -1.472625,1.7325 -0.28875,0.75075 -0.433125,1.79025 -0.433125,3.1185 0,2.02125 0.462,3.493875 1.386,4.417875 0.98175,0.924 2.627625,1.761375 4.937625,2.512125 l 11.521124,3.724875 c 4.79325,1.617 8.11388,3.8115 9.96188,6.5835 1.848,2.772 2.772,6.41025 2.772,10.91475 0,3.40725 -0.40425,6.237 -1.21275,8.48925 -0.8085,2.25225 -2.079,4.0136252 -3.8115,5.2841252 -1.7325,1.2705 -4.01363,2.165625 -6.84338,2.685375 -2.82975,0.5775 -6.29475,0.86625 -10.395,0.86625 -1.963499,0 -4.764374,-0.144375 -8.402624,-0.433125 -3.63825,-0.231 -7.767375,-0.86625 -12.387375,-1.90575 l 0.779625,-9.3555002 c 3.465,0.05775 6.439125,0.144378 8.922375,0.259875 2.48325,0.05775 4.62,0.115503 6.41025,0.17325 h 4.677749 c 2.36775,0 4.18688,-0.144375 5.45738,-0.433125 1.32825,-0.28875 2.25225,-0.86625 2.772,-1.7325 0.51975,-0.86625 0.77962,-2.107875 0.77962,-3.724875 0,-1.44375 -0.20212,-2.569875 -0.60637,-3.378375 -0.3465,-0.8085 -0.95288,-1.472625 -1.81913,-1.992375 -0.86625,-0.51975 -1.99237,-0.98175 -3.37837,-1.386 l -12.127504,-4.158 c -4.62,-1.617 -7.882875,-3.782625 -9.788625,-6.496875 -1.848,-2.71425 -2.772,-6.323625 -2.772,-10.828125 0,-3.40725 0.40425,-6.208125 1.21275,-8.402625 0.86625,-2.1945 2.165625,-3.86925 3.898125,-5.02425 1.7325,-1.21275 3.98475,-2.050125 6.75675,-2.512125 2.82975,-0.462 6.208125,-0.693 10.135124,-0.693 z"
         id="text18-7"
         transform="scale(0.96877924,1.0322269)"
         aria-label="TS"
         sodipodi:nodetypes="ccccccccccscccsscscscccsssscscccccscsscscccscccss" />
      <path
         style="fill:#9dd91a;fill-opacity:0.4;stroke-width:0.983416"
         d="m 17.48774,41.9506 c -1.71906,-0.13678 -4.7474,0.0573 -5.73687,4.34611 -1.00269,4.34617 -11.08664,44.0796 -11.08664,44.0796 0,0 -0.85281,4.64046 2.92737,5.6122 5.33514,1.37144 6.42083,-2.75353 6.42083,-2.75353 L 22.1816,48.0352 c 0,0 0.69504,-5.65581 -4.69386,-6.0846 z"
         id="path20-15"
         sodipodi:nodetypes="sscsccs" />
      <path
         style="fill:#9dd91a;fill-opacity:0.4;stroke-width:0.869316"
         d="m 186.41637,66.87762 c 0.30663,1.81289 -0.87802,3.64597 -4.57851,5.79333 -3.42138,1.9854 -44.51085,26.81802 -44.51085,26.81802 0,0 -4.12939,0.7489 -4.99409,-2.57057 -1.22042,-4.68496 2.45024,-5.63833 2.45024,-5.63833 l 45.61707,-27.64715 c 0,0 5.21592,-1.48295 6.01614,3.2447 z"
         id="path20-1-2"
         sodipodi:nodetypes="sscsccs" />
      <path
         style="fill:#9dd91a;fill-opacity:0.4;stroke-width:0.983416"
         d="m -32.12009,44.91814 27.05141,-6.81389 c 0,0 4.59333,-0.25536 5.60655,4.36791 0.49346,2.25159 1.08646,5.12843 -1.73848,6.69304 -1.66939,0.92462 -17.99302,4.95456 -17.99302,4.95456 l 17.1238,22.6434 c 0,0 1.67324,3.32475 -0.8475,5.58475 -1.81307,1.62553 -3.80287,1.78193 -5.38922,0.52154 -1.58634,-1.26038 -26.22891,-29.31467 -26.22891,-29.31467 0,0 -4.62535,-6.69175 2.41537,-8.63664 z"
         id="path21-76"
         sodipodi:nodetypes="ccssccsscc" />
      <path
         style="fill:#9dd91a;fill-opacity:0.4;stroke-width:0.983416"
         d="m 55.22625,95.00643 -27.05146,6.8139 c 0,0 -4.5933,0.25534 -5.60652,-4.3679 -0.49346,-2.25161 -1.08649,-5.12843 1.73846,-6.69306 1.66939,-0.9246 17.99305,-4.95458 17.99305,-4.95458 L 25.17597,63.16144 c 0,0 -1.67325,-3.32476 0.84747,-5.58477 1.81309,-1.62552 3.80287,-1.78193 5.38921,-0.52154 1.5864,1.26038 26.22896,29.31469 26.22896,29.31469 0,0 4.62536,6.69173 -2.41536,8.63661 z"
         id="path21-7-1"
         sodipodi:nodetypes="ccssccsscc" />
      <path
         style="fill:#9dd91a;fill-opacity:0.4;stroke-width:0.983416"
         d="M 123.8869,70.56221 96.83548,63.74832 c 0,0 -4.59333,-0.25535 -5.60654,4.36791 -0.49345,2.25158 -1.08648,5.12845 1.73848,6.69305 1.66939,0.9246 17.99303,4.95456 17.99303,4.95456 l -17.12381,22.64338 c 0,0 -1.67324,3.32476 0.84749,5.58476 1.81308,1.62553 3.80286,1.78194 5.38922,0.52154 1.58639,-1.26038 26.22895,-29.31466 26.22895,-29.31466 0,0 4.62537,-6.69177 -2.4154,-8.63665 z"
         id="path21-7-7-4"
         sodipodi:nodetypes="ccssccsscc" />
    </g>
  </g>
</svg>
